<svg width="59" height="59" viewBox="0 0 59 59" fill="none" xmlns="http://www.w3.org/2000/svg">
<path fill-rule="evenodd" clip-rule="evenodd" d="M25.1685 20.2765C25.9203 19.3196 26.8478 18.4995 27.9413 17.8063C29.8941 16.6053 32.1202 16 34.6294 16C36.7091 16 38.5544 16.4296 40.1459 17.2693C41.7765 18.0895 43.0458 18.6948 43.9538 20.423C44.9008 22.1121 45.3695 22.0731 45.3695 24.7385C43.3093 30.4015 43.5827 38.2026 45.3695 42.6548H37.7539C35.5961 38.8763 35.5766 34.258 37.7539 28.7904C37.7539 26.6814 37.3144 25.1193 36.4357 24.1039C35.557 23.0982 34.317 22.5905 32.7256 22.5905C31.6223 22.5905 30.6263 22.8541 29.7476 23.3716C28.8689 23.8598 28.1854 24.6115 27.6972 25.6172C27.2091 26.6326 26.965 27.9117 26.965 29.4739V42.6548H19.3493V28.7904C19.3493 26.6814 18.9099 25.1193 18.0312 24.1039C17.1818 23.0982 15.9613 22.5905 14.3698 22.5905C13.2665 22.5905 12.2707 22.8541 11.392 23.3716C10.5133 23.8598 9.8297 24.6115 9.34152 25.6172C8.85333 26.6326 8.60924 27.9117 8.60924 29.4739C6.65651 33.0376 6.53935 38.9056 8.60924 42.6548H0.993658C-0.0901086 40.3018 -0.549001 32.8032 0.993658 29.5226V16.3906H8.26754V19.4271C8.97052 18.6069 9.80048 17.943 10.7573 17.4158C12.4464 16.4785 14.3699 16 16.5179 16C18.9295 16 21.0287 16.6249 22.8154 17.8551C23.7723 18.4898 24.5534 19.3001 25.1685 20.2765Z" fill="black"/>
<path d="M54.0742 42.6597C52.7756 42.6597 51.6526 42.2204 50.7056 41.3417C49.7975 40.4336 49.3387 39.2718 49.3387 37.8756C49.3387 36.4794 49.7975 35.3565 50.7056 34.5071C51.6526 33.6284 52.7756 33.189 54.0742 33.189C55.4118 33.189 56.5346 33.6284 57.4426 34.5071C58.3604 35.3565 58.8094 36.4794 58.8094 37.8756C58.8094 39.2718 58.3604 40.4336 57.4426 41.3417C56.5346 42.2204 55.4118 42.6597 54.0742 42.6597Z" fill="black"/>
</svg>
