<svg width="24" height="19" viewBox="0 0 24 19" fill="none" xmlns="http://www.w3.org/2000/svg">
<path fill-rule="evenodd" clip-rule="evenodd" d="M15.4218 9.2109C15.4218 12.6411 12.6411 15.4218 9.2109 15.4218C5.78071 15.4218 3 12.6411 3 9.2109C3 5.78071 5.78071 3 9.2109 3C12.6411 3 15.4218 5.78071 15.4218 9.2109ZM16.0218 15.412C14.3371 17.2612 11.9095 18.4218 9.2109 18.4218C4.12386 18.4218 0 14.2979 0 9.2109C0 4.12386 4.12386 0 9.2109 0C14.2979 0 18.4218 4.12386 18.4218 9.2109C18.4218 10.1278 18.2878 11.0134 18.0384 11.8493L23.2189 14.8402L21.172 18.3855L16.0218 15.412Z" fill="#A9A9A9"/>
</svg>
