<svg width="26" height="21" viewBox="0 0 26 21" fill="none" xmlns="http://www.w3.org/2000/svg">
<path fill-rule="evenodd" clip-rule="evenodd" d="M17.6283 10.3142C17.6283 14.3537 14.3537 17.6283 10.3142 17.6283C6.27467 17.6283 3 14.3537 3 10.3142C3 6.27467 6.27467 3 10.3142 3C14.3537 3 17.6283 6.27467 17.6283 10.3142ZM17.9409 17.258C16.0544 19.3288 13.3361 20.6283 10.3142 20.6283C4.61781 20.6283 0 16.0105 0 10.3142C0 4.61781 4.61781 0 10.3142 0C16.0105 0 20.6283 4.61781 20.6283 10.3142C20.6283 11.3409 20.4783 12.3326 20.199 13.2685L26 16.6178L23.708 20.5877L17.9409 17.258Z" fill="white"/>
</svg>
