<svg width="26" height="20" viewBox="0 0 26 20" fill="none" xmlns="http://www.w3.org/2000/svg">
<path d="M12.3684 2.9403L12.3684 17.4227C12.3684 18.1932 11.5338 18.6743 10.8671 18.288L2.58568 13.4899C1.60422 12.9213 0.999986 11.8729 0.999986 10.7386C0.999986 9.71035 1.4972 8.74558 2.33463 8.14892L10.7881 2.12587C11.4501 1.65421 12.3684 2.12747 12.3684 2.9403Z" stroke="white" stroke-width="2"/>
<path d="M16.158 13.1052C17.5532 13.1052 18.6843 11.7503 18.6843 10.0789C18.6843 8.40754 17.5532 7.05261 16.158 7.05261" stroke="white" stroke-width="2" stroke-linecap="round"/>
<path d="M18.6843 17.6448C22.1724 17.6448 25.0001 14.2574 25.0001 10.079C25.0001 5.9005 22.1724 2.51318 18.6843 2.51318" stroke="white" stroke-width="2" stroke-linecap="round"/>
</svg>
