<?xml version="1.0" encoding="UTF-8" standalone="no"?>
<!DOCTYPE svg PUBLIC "-//W3C//DTD SVG 1.1//EN" "http://www.w3.org/Graphics/SVG/1.1/DTD/svg11.dtd">
<svg width="100%" height="100%" viewBox="0 0 501 149" version="1.1" xmlns="http://www.w3.org/2000/svg" xmlns:xlink="http://www.w3.org/1999/xlink" xml:space="preserve" xmlns:serif="http://www.serif.com/" style="fill-rule:evenodd;clip-rule:evenodd;stroke-linejoin:round;stroke-miterlimit:2;">
    <g>
        <path d="M119.577,65.889C95.358,51.661 55.41,50.353 32.291,57.295C28.577,58.409 24.651,56.336 23.527,52.663C22.401,48.988 24.495,45.107 28.21,43.99C54.751,36.022 98.869,37.561 126.75,53.933C130.09,55.894 131.185,60.16 129.205,63.458C127.224,66.761 122.908,67.85 119.577,65.889ZM118.783,86.962C117.085,89.689 113.48,90.544 110.727,88.87C90.536,76.593 59.746,73.036 35.859,80.209C32.761,81.135 29.49,79.408 28.548,76.349C27.615,73.285 29.362,70.054 32.455,69.122C59.743,60.93 93.666,64.898 116.856,78.996C119.61,80.673 120.476,84.241 118.783,86.962ZM109.59,107.2C108.241,109.389 105.357,110.076 103.152,108.742C85.508,98.075 63.301,95.665 37.148,101.575C34.628,102.147 32.116,100.584 31.541,98.092C30.964,95.598 32.537,93.114 35.063,92.545C63.683,86.074 88.234,88.859 108.037,100.829C110.245,102.163 110.94,105.017 109.59,107.2ZM75.133,0C33.639,0 0,33.276 0,74.322C0,115.372 33.639,148.646 75.133,148.646C116.629,148.646 150.267,115.372 150.267,74.322C150.267,33.276 116.629,0 75.133,0Z" style="fill:white;fill-rule:nonzero;"/>
        <path d="M204.405,68.616C191.433,65.555 189.123,63.407 189.123,58.895C189.123,54.631 193.182,51.762 199.216,51.762C205.066,51.762 210.865,53.942 216.947,58.427C217.131,58.562 217.362,58.617 217.589,58.582C217.816,58.548 218.016,58.425 218.149,58.239L224.483,49.407C224.744,49.043 224.673,48.541 224.322,48.263C217.084,42.518 208.934,39.725 199.408,39.725C185.401,39.725 175.617,48.04 175.617,59.937C175.617,72.696 184.057,77.212 198.642,80.699C211.055,83.528 213.15,85.897 213.15,90.134C213.15,94.828 208.914,97.746 202.096,97.746C194.525,97.746 188.348,95.223 181.438,89.304C181.267,89.158 181.032,89.091 180.815,89.103C180.587,89.122 180.378,89.227 180.233,89.4L173.13,97.761C172.833,98.108 172.87,98.626 173.214,98.926C181.254,106.025 191.14,109.776 201.809,109.776C216.902,109.776 226.655,101.617 226.655,88.99C226.655,78.32 220.21,72.418 204.405,68.616Z" style="fill:white;fill-rule:nonzero;"/>
        <path d="M271.774,82.911C271.774,91.921 266.163,98.209 258.129,98.209C250.186,98.209 244.195,91.635 244.195,82.911C244.195,74.187 250.186,67.612 258.129,67.612C266.034,67.612 271.774,74.045 271.774,82.911ZM260.818,55.953C254.275,55.953 248.909,58.501 244.484,63.724L244.484,57.845C244.484,57.381 244.104,57.003 243.635,57.003L232.02,57.003C231.551,57.003 231.171,57.381 231.171,57.845L231.171,123.167C231.171,123.632 231.551,124.01 232.02,124.01L243.635,124.01C244.104,124.01 244.484,123.632 244.484,123.167L244.484,102.549C248.91,107.462 254.277,109.862 260.818,109.862C272.974,109.862 285.279,100.605 285.279,82.911C285.279,65.211 272.974,55.953 260.818,55.953Z" style="fill:white;fill-rule:nonzero;"/>
        <path d="M316.805,98.303C308.479,98.303 302.201,91.685 302.201,82.911C302.201,74.099 308.262,67.704 316.613,67.704C324.994,67.704 331.314,74.322 331.314,83.102C331.314,91.913 325.212,98.303 316.805,98.303ZM316.805,55.953C301.15,55.953 288.886,67.877 288.886,83.102C288.886,98.163 301.066,109.962 316.613,109.962C332.324,109.962 344.626,98.077 344.626,82.911C344.626,67.793 332.408,55.953 316.805,55.953Z" style="fill:white;fill-rule:nonzero;"/>
        <path d="M378.067,57.002L365.285,57.002L365.285,44.073C365.285,43.61 364.907,43.232 364.437,43.232L352.823,43.232C352.353,43.232 351.971,43.61 351.971,44.073L351.971,57.002L346.386,57.002C345.918,57.002 345.54,57.38 345.54,57.843L345.54,67.718C345.54,68.183 345.918,68.561 346.386,68.561L351.971,68.561L351.971,94.113C351.971,104.439 357.167,109.675 367.413,109.675C371.58,109.675 375.037,108.823 378.294,106.996C378.559,106.85 378.724,106.567 378.724,106.267L378.724,96.863C378.724,96.573 378.571,96.3 378.32,96.147C378.067,95.99 377.752,95.982 377.493,96.109C375.256,97.223 373.093,97.737 370.675,97.737C366.949,97.737 365.285,96.064 365.285,92.312L365.285,68.561L378.067,68.561C378.537,68.561 378.914,68.183 378.914,67.718L378.914,57.843C378.914,57.38 378.537,57.002 378.067,57.002Z" style="fill:white;fill-rule:nonzero;"/>
        <path d="M422.596,57.059L422.596,55.471C422.596,50.8 424.407,48.717 428.468,48.717C430.889,48.717 432.834,49.194 435.012,49.911C435.281,49.995 435.561,49.953 435.779,49.795C436.003,49.636 436.129,49.382 436.129,49.112L436.129,39.429C436.129,39.059 435.889,38.731 435.529,38.622C433.228,37.945 430.283,37.249 425.875,37.249C415.145,37.249 409.475,43.227 409.475,54.527L409.475,56.958L403.895,56.958C403.426,56.958 403.042,57.337 403.042,57.801L403.042,67.726C403.042,68.19 403.426,68.568 403.895,68.568L409.475,68.568L409.475,107.981C409.475,108.446 409.854,108.823 410.322,108.823L421.937,108.823C422.406,108.823 422.788,108.446 422.788,107.981L422.788,68.568L433.634,68.568L450.247,107.971C448.361,112.111 446.506,112.935 443.974,112.935C441.928,112.935 439.773,112.33 437.569,111.137C437.362,111.025 437.117,111.006 436.893,111.074C436.671,111.153 436.485,111.315 436.391,111.529L432.454,120.073C432.266,120.477 432.426,120.951 432.819,121.16C436.929,123.362 440.64,124.302 445.224,124.302C453.801,124.302 458.542,120.349 462.722,109.717L482.874,58.206C482.974,57.947 482.945,57.654 482.784,57.424C482.624,57.196 482.367,57.059 482.085,57.059L469.993,57.059C469.631,57.059 469.306,57.287 469.188,57.623L456.801,92.624L443.232,57.6C443.109,57.274 442.792,57.059 442.439,57.059L422.596,57.059Z" style="fill:white;fill-rule:nonzero;"/>
        <path d="M396.79,57.012L385.175,57.012C384.705,57.012 384.324,57.39 384.324,57.854L384.324,107.985C384.324,108.449 384.705,108.826 385.175,108.826L396.79,108.826C397.259,108.826 397.641,108.449 397.641,107.985L397.641,57.854C397.641,57.39 397.259,57.012 396.79,57.012Z" style="fill:white;fill-rule:nonzero;"/>
        <path d="M391.044,34.178C386.443,34.178 382.708,37.863 382.708,42.415C382.708,46.969 386.443,50.659 391.044,50.659C395.644,50.659 399.375,46.969 399.375,42.415C399.375,37.863 395.644,34.178 391.044,34.178Z" style="fill:white;fill-rule:nonzero;"/>
        <path d="M493.258,61.991L491.13,61.991L491.13,64.675L493.258,64.675C494.32,64.675 494.955,64.161 494.955,63.333C494.955,62.459 494.32,61.991 493.258,61.991ZM494.638,65.82L496.95,69.023L495,69.023L492.919,66.086L491.13,66.086L491.13,69.023L489.498,69.023L489.498,60.535L493.325,60.535C495.317,60.535 496.629,61.544 496.629,63.242C496.629,64.634 495.816,65.484 494.638,65.82ZM492.826,57.71C488.639,57.71 485.47,61.003 485.47,65.035C485.47,69.065 488.616,72.313 492.783,72.313C496.969,72.313 500.14,69.023 500.14,64.989C500.14,60.959 496.992,57.71 492.826,57.71ZM492.783,73.122C488.185,73.122 484.608,69.47 484.608,65.035C484.608,60.6 488.232,56.906 492.826,56.906C497.422,56.906 501,60.557 501,64.989C501,69.424 497.379,73.122 492.783,73.122Z" style="fill:white;fill-rule:nonzero;"/>
    </g>
</svg>
